<svg width="16" height="16" viewBox="0 0 16 16" fill="none" xmlns="http://www.w3.org/2000/svg">
<path d="M15.276 0.802734H1.22049C0.882465 0.802734 0.609375 1.07341 0.609375 1.40844V15.3397C0.609375 15.6747 0.882465 15.9454 1.22049 15.9454H15.276C15.6141 15.9454 15.8872 15.6747 15.8872 15.3397V1.40844C15.8872 1.07341 15.6141 0.802734 15.276 0.802734ZM13.5115 5.22249H12.2911C11.3344 5.22249 11.1491 5.67299 11.1491 6.33548V7.79485H13.4332L13.1352 10.0795H11.1491V15.9454H8.76771V10.0814H6.77587V7.79485H8.76771V6.11023C8.76771 4.15494 9.97274 3.08927 11.7335 3.08927C12.5776 3.08927 13.3014 3.15174 13.5134 3.18013V5.22249H13.5115Z" fill="#AAAAAA"/>
</svg>
