<svg width="42" height="42" viewBox="0 0 42 42" fill="none" xmlns="http://www.w3.org/2000/svg">
<path d="M23.2089 25.577L23.2089 25.5771C21.6939 27.5743 20.7946 30.0664 20.7946 32.7672C20.7946 34.9207 21.3664 36.942 22.3666 38.6856C22.403 38.749 22.4232 38.9295 22.3235 39.1464C22.279 39.2433 22.2239 39.3139 22.1762 39.3547C22.141 39.3846 22.121 39.3898 22.1166 39.3905H2.84521C1.55067 39.3905 0.5 38.3394 0.5 37.0411C0.499994 36.7286 0.562258 36.4192 0.683129 36.1311L0.222057 35.9376L0.683136 36.131C1.28346 34.6999 2.28348 33.5227 3.70279 32.5975C4.64192 31.9854 5.76962 31.4999 6.9607 31.0496C7.41035 30.8796 7.87569 30.7125 8.34134 30.5452C9.08325 30.2786 9.82593 30.0118 10.5071 29.7329C11.6255 29.2751 12.675 28.749 13.4481 28.0475C14.2388 27.3299 14.7478 26.4201 14.7478 25.2368C14.7478 24.0402 14.301 22.5866 13.4351 21.295L13.0198 21.5734L13.4351 21.295C12.9308 20.5427 12.5679 20.0795 12.0885 19.4676C11.7832 19.0779 11.4307 18.6279 10.9642 18.0045C9.82429 16.4809 9.42651 14.1856 9.42651 13.0255C9.42651 12.7746 9.46868 12.657 9.49714 12.6028C9.52316 12.5533 9.55676 12.5181 9.63406 12.4606C9.64228 12.4545 9.65344 12.4466 9.66689 12.4372C9.74383 12.3829 9.896 12.2756 10.0058 12.14C10.1656 11.9427 10.2452 11.7 10.2452 11.4018H10.2452L10.2451 11.3952C10.2168 9.23604 10.349 7.42124 10.9469 5.88876C11.5356 4.37997 12.5905 3.10883 14.4885 2.06645L14.4885 2.06644C14.8154 1.88689 15.4279 1.72589 16.1234 1.61163C16.8026 1.50006 17.4885 1.4442 17.9171 1.4442H17.9431L17.9689 1.44151C18.3056 1.40645 18.564 1.29749 18.7534 1.08462C18.8347 0.993235 18.8876 0.898945 18.9199 0.840433C18.9272 0.827102 18.9336 0.815416 18.9393 0.805033C18.9631 0.761424 18.9744 0.740809 18.9903 0.717914L18.9914 0.716386C19.0072 0.693613 19.0364 0.651354 19.1695 0.605976C19.3296 0.55136 19.6221 0.5 20.1563 0.5C22.2664 0.5 25.1452 1.4468 26.5162 4.30949C27.9497 7.3027 28.0743 10.6091 28.0743 11.3973C28.0743 11.6959 28.1535 11.9389 28.3127 12.1368C28.4226 12.2735 28.5746 12.3812 28.6519 12.4359C28.6653 12.4454 28.6764 12.4533 28.6847 12.4595C28.7624 12.5174 28.7962 12.5529 28.8223 12.6027C28.8508 12.657 28.893 12.7746 28.893 13.0255C28.893 14.197 28.5469 16.4842 27.3867 18.0001C26.9482 18.5731 26.6098 18.9989 26.3184 19.3657C25.7916 20.0288 25.4183 20.4986 24.8844 21.295C24.1252 22.4275 23.6892 23.662 23.5924 24.7715C23.5867 24.7897 23.577 24.8172 23.5628 24.854C23.5337 24.9297 23.4923 25.0266 23.4453 25.1287C23.3431 25.3506 23.2459 25.5283 23.2089 25.577ZM23.597 24.7556C23.5971 24.7556 23.5968 24.7567 23.5962 24.759C23.5967 24.7568 23.597 24.7557 23.597 24.7556Z" fill="#68C5CB" stroke="white"/>
<path d="M35.1369 35.1474L35.1346 37.7927C35.1346 37.7927 35.1346 37.7927 35.1346 37.7927C35.1339 38.6486 34.4394 39.3418 33.5835 39.3411L35.1369 35.1474ZM35.1369 35.1474L37.7822 35.1498C37.7822 35.1498 37.7822 35.1498 37.7822 35.1498C38.6382 35.1506 39.3326 34.4573 39.3334 33.6014C39.3342 32.7456 38.641 32.051 37.7851 32.0503C37.7851 32.0503 37.7851 32.0503 37.785 32.0503L35.1397 32.0479L35.1421 29.4026C35.1429 28.5467 34.4497 27.8522 33.5938 27.8515L35.1369 35.1474ZM32.0403 32.0451L32.0426 29.3999C32.0426 29.3998 32.0426 29.3998 32.0426 29.3998C32.0434 28.5439 32.7379 27.8507 33.5937 27.8515L32.0403 32.0451ZM32.0403 32.0451L29.395 32.0428C29.395 32.0428 29.395 32.0428 29.3949 32.0428C28.5391 32.042 27.8446 32.7352 27.8438 33.5911L32.0403 32.0451ZM32.0375 35.1446L29.3922 35.1423C29.3922 35.1423 29.3922 35.1423 29.3922 35.1423C28.5363 35.1415 27.843 34.447 27.8438 33.5912L32.0375 35.1446ZM32.0375 35.1446L32.0351 37.7899C32.0351 37.7899 32.0351 37.7899 32.0351 37.7899C32.0343 38.6458 32.7276 39.3403 33.5835 39.3411L32.0375 35.1446ZM33.5923 41.4903C29.2304 41.4903 25.6943 37.9543 25.6943 33.5923C25.6943 29.2304 29.2304 25.6943 33.5923 25.6943C37.9543 25.6943 41.4903 29.2304 41.4903 33.5923C41.4903 37.9543 37.9543 41.4903 33.5923 41.4903Z" fill="#68C5CB" stroke="white"/>
</svg>
