<svg width="24" height="16" viewBox="0 0 24 16" fill="none" xmlns="http://www.w3.org/2000/svg">
<path fill-rule="evenodd" clip-rule="evenodd" d="M15.9771 1.99996C15.1815 1.99996 14.4184 2.31603 13.8558 2.87864C13.2932 3.44125 12.9771 4.20431 12.9771 4.99996C12.9771 5.79561 13.2932 6.55867 13.8558 7.12128C14.4184 7.68389 15.1815 7.99996 15.9771 7.99996C16.7728 7.99996 17.5358 7.68389 18.0984 7.12128C18.661 6.55867 18.9771 5.79561 18.9771 4.99996C18.9771 4.20431 18.661 3.44125 18.0984 2.87864C17.5358 2.31603 16.7728 1.99996 15.9771 1.99996ZM10.9771 4.99996C10.9771 4.18492 11.1764 3.38223 11.5575 2.6618C11.9387 1.94137 12.4901 1.32503 13.1639 0.866464C13.8378 0.407895 14.6134 0.120995 15.4235 0.0307473C16.2335 -0.0595005 17.0533 0.0496396 17.8115 0.348665C18.5697 0.64769 19.2433 1.12753 19.7737 1.74641C20.3041 2.36529 20.6751 3.10444 20.8545 3.89949C21.0339 4.69455 21.0162 5.5214 20.803 6.30806C20.5898 7.09472 20.1875 7.81733 19.6311 8.41296C21.3276 8.96483 22.7942 10.0617 23.8031 11.533C23.9438 11.7521 23.9935 12.0176 23.9415 12.2728C23.8896 12.528 23.7401 12.7529 23.5248 12.8996C23.3096 13.0463 23.0457 13.1032 22.7891 13.0583C22.5326 13.0133 22.3037 12.8701 22.1511 12.659C21.1751 11.227 19.3951 9.99996 16.9771 9.99996C13.1431 9.99996 10.9771 13.074 10.9771 15C10.9771 15.2652 10.8718 15.5195 10.6842 15.7071C10.4967 15.8946 10.2423 16 9.97711 16C9.71189 16 9.45754 15.8946 9.27 15.7071C9.08247 15.5195 8.97711 15.2652 8.97711 15C8.97711 14.308 9.13511 13.57 9.43711 12.843C9.35859 12.7921 9.28756 12.7305 9.22611 12.66C8.40511 11.726 7.13111 11 5.47711 11C3.82311 11 2.54911 11.726 1.72811 12.66C1.55034 12.8488 1.30616 12.9612 1.0471 12.9734C0.788044 12.9856 0.534373 12.8967 0.339622 12.7254C0.144872 12.5542 0.0242755 12.3139 0.00328342 12.0554C-0.0177086 11.7969 0.0625457 11.5404 0.22711 11.34C0.817627 10.6679 1.53369 10.1176 2.33511 9.71996C1.69482 9.09507 1.25533 8.29351 1.07278 7.41765C0.890227 6.54178 0.972903 5.63139 1.31024 4.80274C1.64759 3.97409 2.22428 3.26481 2.96667 2.76548C3.70905 2.26616 4.58343 1.99947 5.47811 1.99947C6.37279 1.99947 7.24717 2.26616 7.98955 2.76548C8.73194 3.26481 9.30863 3.97409 9.64598 4.80274C9.98332 5.63139 10.066 6.54178 9.88344 7.41765C9.70089 8.29351 9.2614 9.09507 8.62111 9.71996C9.31487 10.0643 9.94542 10.5234 10.4861 11.078C11.1653 10.2233 12.0102 9.51481 12.9701 8.99496C12.3506 8.52943 11.848 7.92608 11.5021 7.23268C11.1562 6.53927 10.9764 5.77486 10.9771 4.99996ZM2.97711 6.49996C2.97711 5.83692 3.2405 5.20103 3.70934 4.73219C4.17818 4.26335 4.81407 3.99996 5.47711 3.99996C6.14015 3.99996 6.77604 4.26335 7.24488 4.73219C7.71372 5.20103 7.97711 5.83692 7.97711 6.49996C7.97711 7.163 7.71372 7.79888 7.24488 8.26773C6.77604 8.73657 6.14015 8.99996 5.47711 8.99996C4.81407 8.99996 4.17818 8.73657 3.70934 8.26773C3.2405 7.79888 2.97711 7.163 2.97711 6.49996Z" fill="#201F25"/>
</svg>
