<svg width="17" height="16" viewBox="0 0 17 16" fill="none" xmlns="http://www.w3.org/2000/svg">
<path d="M8.58229 5.84921C7.17961 5.84921 6.03491 6.98378 6.03491 8.37406C6.03491 9.76433 7.17961 10.8989 8.58229 10.8989C9.98497 10.8989 11.1297 9.76433 11.1297 8.37406C11.1297 6.98378 9.98497 5.84921 8.58229 5.84921ZM16.2225 8.37406C16.2225 7.32851 16.2321 6.29243 16.1728 5.24878C16.1136 4.03654 15.8346 2.96069 14.9402 2.07425C14.044 1.18591 12.9604 0.911262 11.7374 0.852545C10.6825 0.793827 9.63717 0.803298 8.5842 0.803298C7.52932 0.803298 6.484 0.793827 5.43103 0.852545C4.20798 0.911262 3.12252 1.1878 2.22817 2.07425C1.33191 2.96258 1.05481 4.03654 0.995567 5.24878C0.936326 6.29432 0.945881 7.3304 0.945881 8.37406C0.945881 9.41771 0.936326 10.4557 0.995567 11.4993C1.05481 12.7116 1.33382 13.7874 2.22817 14.6739C3.12444 15.5622 4.20798 15.8369 5.43103 15.8956C6.48591 15.9543 7.53123 15.9448 8.5842 15.9448C9.63908 15.9448 10.6844 15.9543 11.7374 15.8956C12.9604 15.8369 14.0459 15.5603 14.9402 14.6739C15.8365 13.7855 16.1136 12.7116 16.1728 11.4993C16.234 10.4557 16.2225 9.41961 16.2225 8.37406ZM8.58229 12.2589C6.41329 12.2589 4.6628 10.5239 4.6628 8.37406C4.6628 6.22424 6.41329 4.48924 8.58229 4.48924C10.7513 4.48924 12.5018 6.22424 12.5018 8.37406C12.5018 10.5239 10.7513 12.2589 8.58229 12.2589ZM12.6623 5.23741C12.1559 5.23741 11.7469 4.83207 11.7469 4.33013C11.7469 3.82819 12.1559 3.42285 12.6623 3.42285C13.1687 3.42285 13.5777 3.82819 13.5777 4.33013C13.5778 4.44932 13.5543 4.56737 13.5083 4.67751C13.4624 4.78765 13.3949 4.88773 13.3099 4.97201C13.2249 5.05629 13.1239 5.12311 13.0128 5.16865C12.9017 5.21419 12.7826 5.23756 12.6623 5.23741Z" fill="#AAAAAA"/>
</svg>
