<svg width="73" height="34" viewBox="0 0 73 34" fill="none" xmlns="http://www.w3.org/2000/svg">
<path d="M2.871 26.871C2.321 26.871 1.804 26.717 1.32 26.409C0.836 26.101 0.594 25.705 0.594 25.221C0.594 24.979 0.649 24.682 0.759 24.33C0.869 24 0.968 23.692 1.056 23.406C1.76 21.25 2.42 19.237 3.036 17.367C3.652 15.497 4.268 13.682 4.884 11.922C5.5 10.162 6.149 8.402 6.831 6.642C7.535 4.882 8.316 3.045 9.174 1.131C8.338 1.285 7.59 1.516 6.93 1.824C6.292 2.11 5.775 2.374 5.379 2.616C4.983 2.836 4.719 2.946 4.587 2.946C4.499 2.946 4.367 2.902 4.191 2.814C4.037 2.704 3.894 2.583 3.762 2.451C3.63 2.297 3.564 2.165 3.564 2.055C4.136 1.813 4.807 1.549 5.577 1.263C6.369 0.976999 7.216 0.734999 8.118 0.536999C9.02 0.338999 9.933 0.239999 10.857 0.239999C11.825 0.239999 12.804 0.371999 13.794 0.636C14.806 0.899999 15.73 1.307 16.566 1.857C17.402 2.385 18.073 3.045 18.579 3.837C19.085 4.629 19.338 5.553 19.338 6.609C19.338 7.753 19.085 8.743 18.579 9.579C18.073 10.393 17.402 11.086 16.566 11.658C15.73 12.208 14.828 12.659 13.86 13.011C12.892 13.341 11.924 13.605 10.956 13.803C10.01 13.979 9.163 14.1 8.415 14.166C7.667 14.21 7.117 14.232 6.765 14.232H6.435C5.775 16.498 5.137 18.731 4.521 20.931C3.927 23.131 3.377 25.111 2.871 26.871ZM6.567 13.704C7.777 13.638 8.998 13.44 10.23 13.11C11.484 12.78 12.628 12.307 13.662 11.691C14.696 11.053 15.532 10.272 16.17 9.348C16.808 8.402 17.127 7.302 17.127 6.048C17.127 4.86 16.841 3.892 16.269 3.144C15.719 2.396 14.982 1.846 14.058 1.494C13.156 1.12 12.188 0.932998 11.154 0.932998C10.34 2.539 9.548 4.464 8.778 6.708C8.008 8.952 7.271 11.284 6.567 13.704ZM16.4727 25.551C15.7907 25.551 15.2187 25.32 14.7567 24.858C14.2727 24.418 14.0307 23.736 14.0307 22.812C14.0307 22.02 14.2067 21.173 14.5587 20.271C14.9107 19.347 15.3947 18.445 16.0107 17.565C16.6267 16.663 17.3197 15.849 18.0897 15.123C18.8817 14.375 19.7067 13.781 20.5647 13.341C21.4447 12.901 22.3137 12.681 23.1717 12.681C24.0297 12.681 24.7447 12.912 25.3167 13.374C25.8887 13.814 26.1747 14.408 26.1747 15.156C26.1747 15.706 26.0207 16.08 25.7127 16.278C25.4267 16.476 25.0417 16.575 24.5577 16.575C24.6017 16.399 24.6347 16.212 24.6567 16.014C24.7007 15.794 24.7227 15.596 24.7227 15.42C24.7227 14.914 24.6017 14.485 24.3597 14.133C24.1177 13.759 23.6997 13.572 23.1057 13.572C22.4897 13.572 21.8627 13.792 21.2247 14.232C20.5867 14.65 19.9707 15.222 19.3767 15.948C18.7827 16.652 18.2547 17.422 17.7927 18.258C17.3307 19.094 16.9677 19.919 16.7037 20.733C16.4397 21.547 16.3077 22.273 16.3077 22.911C16.3077 23.769 16.6047 24.198 17.1987 24.198C17.7047 24.198 18.2547 23.967 18.8487 23.505C19.4427 23.021 20.0477 22.416 20.6637 21.69C21.3017 20.942 21.9067 20.172 22.4787 19.38C23.0507 18.588 23.5567 17.862 23.9967 17.202C24.0847 17.07 24.1397 17.004 24.1617 17.004C24.2937 17.026 24.4587 17.07 24.6567 17.136C24.8767 17.202 25.0637 17.29 25.2177 17.4C25.3717 17.51 25.4487 17.653 25.4487 17.829C25.4487 18.027 25.3497 18.302 25.1517 18.654C24.9537 18.984 24.7337 19.369 24.4917 19.809C24.2497 20.249 24.0297 20.7 23.8317 21.162C23.6337 21.602 23.5347 22.02 23.5347 22.416C23.5347 22.746 23.6227 23.076 23.7987 23.406C23.9747 23.714 24.2607 23.868 24.6567 23.868C25.2507 23.868 26.0317 23.439 26.9997 22.581C27.9677 21.701 28.9467 20.392 29.9367 18.654L30.2667 18.984C29.8047 20.172 29.2107 21.217 28.4847 22.119C27.7587 23.021 26.9777 23.725 26.1417 24.231C25.3277 24.737 24.5247 24.99 23.7327 24.99C22.9187 24.99 22.3137 24.748 21.9177 24.264C21.5437 23.78 21.3567 23.252 21.3567 22.68C21.3567 22.548 21.3677 22.405 21.3897 22.251C21.4117 22.075 21.4337 21.899 21.4557 21.723C20.5097 22.999 19.6407 23.956 18.8487 24.594C18.0787 25.232 17.2867 25.551 16.4727 25.551ZM27.1827 33.24C27.0067 33.24 26.8417 33.141 26.6877 32.943C26.5117 32.767 26.3797 32.569 26.2917 32.349C26.2037 32.151 26.1597 32.03 26.1597 31.986C26.4677 30.908 26.7757 29.94 27.0837 29.082C27.3697 28.246 27.6667 27.377 27.9747 26.475C28.2607 25.595 28.5467 24.561 28.8327 23.373C29.1187 22.163 29.4157 20.667 29.7237 18.885C30.0317 17.103 30.3397 14.892 30.6477 12.252C30.6697 12.054 30.7137 11.911 30.7797 11.823C30.8457 11.735 31.0107 11.691 31.2747 11.691C31.8467 11.691 32.2537 11.856 32.4957 12.186C32.7377 12.494 32.8587 12.835 32.8587 13.209C32.8587 13.517 32.7927 14.067 32.6607 14.859C32.5287 15.651 32.3417 16.586 32.0997 17.664C32.4737 16.938 32.9357 16.201 33.4857 15.453C34.0577 14.705 34.7067 14.078 35.4327 13.572C36.1587 13.066 36.9507 12.813 37.8087 12.813C38.7767 12.813 39.5687 13.165 40.1847 13.869C40.8227 14.551 41.1417 15.453 41.1417 16.575C41.1417 17.433 40.9437 18.346 40.5477 19.314C40.1737 20.26 39.6347 21.162 38.9307 22.02C38.2487 22.856 37.4347 23.538 36.4887 24.066C35.5427 24.594 34.4977 24.858 33.3537 24.858C32.7817 24.858 32.3197 24.792 31.9677 24.66C31.6157 24.528 31.4397 24.396 31.4397 24.264C31.4397 24.176 31.5167 24.121 31.6707 24.099C31.8467 24.099 32.0447 24.099 32.2647 24.099C33.1447 24.099 33.9807 23.89 34.7727 23.472C35.5867 23.032 36.3127 22.46 36.9507 21.756C37.5887 21.052 38.0837 20.271 38.4357 19.413C38.8097 18.555 38.9967 17.708 38.9967 16.872C38.9967 16.168 38.8427 15.574 38.5347 15.09C38.2487 14.584 37.7757 14.331 37.1157 14.331C36.5437 14.331 35.9717 14.518 35.3997 14.892C34.8497 15.244 34.3217 15.706 33.8157 16.278C33.3317 16.828 32.8917 17.411 32.4957 18.027C32.1217 18.621 31.8357 19.16 31.6377 19.644C31.2417 21.294 30.8457 22.878 30.4497 24.396C30.0537 25.936 29.6687 27.322 29.2947 28.554C28.9427 29.808 28.6237 30.831 28.3377 31.623C28.0297 32.415 27.7767 32.899 27.5787 33.075C27.4687 33.185 27.3367 33.24 27.1827 33.24ZM43.7363 25.551C43.0543 25.551 42.4823 25.32 42.0203 24.858C41.5363 24.418 41.2943 23.736 41.2943 22.812C41.2943 22.02 41.4703 21.173 41.8223 20.271C42.1743 19.347 42.6583 18.445 43.2743 17.565C43.8903 16.663 44.5833 15.849 45.3533 15.123C46.1453 14.375 46.9703 13.781 47.8283 13.341C48.7083 12.901 49.5773 12.681 50.4353 12.681C51.2933 12.681 52.0083 12.912 52.5803 13.374C53.1523 13.814 53.4383 14.408 53.4383 15.156C53.4383 15.706 53.2843 16.08 52.9763 16.278C52.6903 16.476 52.3053 16.575 51.8213 16.575C51.8653 16.399 51.8983 16.212 51.9203 16.014C51.9643 15.794 51.9863 15.596 51.9863 15.42C51.9863 14.914 51.8653 14.485 51.6233 14.133C51.3813 13.759 50.9633 13.572 50.3693 13.572C49.7533 13.572 49.1263 13.792 48.4883 14.232C47.8503 14.65 47.2343 15.222 46.6403 15.948C46.0463 16.652 45.5183 17.422 45.0563 18.258C44.5943 19.094 44.2313 19.919 43.9673 20.733C43.7033 21.547 43.5713 22.273 43.5713 22.911C43.5713 23.769 43.8683 24.198 44.4623 24.198C44.9683 24.198 45.5183 23.967 46.1123 23.505C46.7063 23.021 47.3113 22.416 47.9273 21.69C48.5653 20.942 49.1703 20.172 49.7423 19.38C50.3143 18.588 50.8203 17.862 51.2603 17.202C51.3483 17.07 51.4033 17.004 51.4253 17.004C51.5573 17.026 51.7223 17.07 51.9203 17.136C52.1403 17.202 52.3273 17.29 52.4813 17.4C52.6353 17.51 52.7123 17.653 52.7123 17.829C52.7123 18.027 52.6133 18.302 52.4153 18.654C52.2173 18.984 51.9973 19.369 51.7553 19.809C51.5133 20.249 51.2933 20.7 51.0953 21.162C50.8973 21.602 50.7983 22.02 50.7983 22.416C50.7983 22.746 50.8863 23.076 51.0623 23.406C51.2383 23.714 51.5243 23.868 51.9203 23.868C52.5143 23.868 53.2953 23.439 54.2633 22.581C55.2313 21.701 56.2103 20.392 57.2003 18.654L57.5303 18.984C57.0683 20.172 56.4743 21.217 55.7483 22.119C55.0223 23.021 54.2413 23.725 53.4053 24.231C52.5913 24.737 51.7883 24.99 50.9963 24.99C50.1823 24.99 49.5773 24.748 49.1813 24.264C48.8073 23.78 48.6203 23.252 48.6203 22.68C48.6203 22.548 48.6313 22.405 48.6533 22.251C48.6753 22.075 48.6973 21.899 48.7193 21.723C47.7733 22.999 46.9043 23.956 46.1123 24.594C45.3423 25.232 44.5503 25.551 43.7363 25.551ZM57.9444 33.24C57.3944 33.24 56.9104 33.086 56.4924 32.778C56.0744 32.492 55.8654 32.063 55.8654 31.491C55.8654 30.787 56.0414 30.16 56.3934 29.61C56.7454 29.06 57.2184 28.554 57.8124 28.092C58.4064 27.63 59.0884 27.19 59.8584 26.772C60.6284 26.354 61.4314 25.936 62.2674 25.518C62.5754 24.704 62.8834 23.802 63.1914 22.812C63.5214 21.8 63.8294 20.689 64.1154 19.479C63.4114 20.623 62.6524 21.613 61.8384 22.449C61.0464 23.263 60.1994 23.67 59.2974 23.67C58.8794 23.67 58.4614 23.582 58.0434 23.406C57.6474 23.208 57.3174 22.911 57.0534 22.515C56.7894 22.119 56.6574 21.613 56.6574 20.997C56.6574 20.381 56.7564 19.666 56.9544 18.852C57.1744 18.038 57.4384 17.246 57.7464 16.476C58.0544 15.706 58.3734 15.068 58.7034 14.562C59.0334 14.056 59.3194 13.803 59.5614 13.803C59.6494 13.803 59.8034 13.836 60.0234 13.902C60.2654 13.968 60.4854 14.067 60.6834 14.199C60.9034 14.309 61.0134 14.43 61.0134 14.562C60.8154 14.848 60.5954 15.255 60.3534 15.783C60.1114 16.311 59.8694 16.905 59.6274 17.565C59.4074 18.203 59.2204 18.83 59.0664 19.446C58.9124 20.062 58.8354 20.59 58.8354 21.03C58.8354 21.426 58.9234 21.745 59.0994 21.987C59.2754 22.229 59.5834 22.35 60.0234 22.35C60.4414 22.35 60.9034 22.152 61.4094 21.756C61.9374 21.338 62.4544 20.81 62.9604 20.172C63.4884 19.534 63.9724 18.852 64.4124 18.126C64.4784 17.884 64.5334 17.642 64.5774 17.4C64.6434 17.136 64.6984 16.872 64.7424 16.608C64.8084 16.3 64.9624 15.948 65.2044 15.552C65.4684 15.134 65.8754 14.925 66.4254 14.925C66.5354 14.925 66.6454 14.936 66.7554 14.958C66.8654 14.958 66.9864 14.98 67.1184 15.024C67.1184 15.376 67.0084 16.036 66.7884 17.004C66.5904 17.95 66.2934 19.061 65.8974 20.337C65.5234 21.613 65.0724 22.922 64.5444 24.264C65.5784 23.868 66.5904 23.219 67.5804 22.317C68.5704 21.393 69.3734 20.172 69.9894 18.654L70.4184 18.984C70.0884 20.04 69.5824 20.964 68.9004 21.756C68.2404 22.526 67.4924 23.197 66.6564 23.769C65.8204 24.319 64.9954 24.781 64.1814 25.155C63.6094 26.563 62.9824 27.883 62.3004 29.115C61.6404 30.347 60.9364 31.337 60.1884 32.085C59.4624 32.855 58.7144 33.24 57.9444 33.24ZM57.7794 32.184C58.1094 32.184 58.6594 31.744 59.4294 30.864C60.2214 30.006 61.0574 28.488 61.9374 26.31C61.0354 26.794 60.1994 27.267 59.4294 27.729C58.6594 28.213 58.0434 28.73 57.5814 29.28C57.1194 29.83 56.8884 30.468 56.8884 31.194C56.8884 31.37 56.9544 31.579 57.0864 31.821C57.2184 32.063 57.4494 32.184 57.7794 32.184ZM70.6716 24.33C70.3856 24.33 70.1326 24.253 69.9126 24.099C69.7146 23.967 69.6156 23.747 69.6156 23.439C69.6156 23.197 69.7146 22.977 69.9126 22.779C70.1106 22.559 70.3526 22.394 70.6386 22.284C70.9466 22.152 71.2436 22.086 71.5296 22.086C71.7936 22.086 72.0026 22.141 72.1566 22.251C72.3106 22.361 72.3876 22.57 72.3876 22.878C72.3876 23.098 72.2996 23.318 72.1236 23.538C71.9696 23.758 71.7606 23.945 71.4966 24.099C71.2326 24.253 70.9576 24.33 70.6716 24.33Z" fill="#D7B686"/>
</svg>
