<svg width="16" height="16" viewBox="0 0 16 16" fill="none" xmlns="http://www.w3.org/2000/svg">
<path d="M14.9401 0.802734H0.884549C0.546528 0.802734 0.273438 1.07341 0.273438 1.40844V15.3397C0.273438 15.6747 0.546528 15.9454 0.884549 15.9454H14.9401C15.2781 15.9454 15.5512 15.6747 15.5512 15.3397V1.40844C15.5512 1.07341 15.2781 0.802734 14.9401 0.802734ZM12.024 6.28626C12.0297 6.37523 12.0297 6.46798 12.0297 6.55883C12.0297 9.33751 9.89462 12.5383 5.99305 12.5383C4.78993 12.5383 3.67465 12.1919 2.73507 11.5957C2.90694 11.6146 3.07118 11.6222 3.24687 11.6222C4.23993 11.6222 5.15278 11.289 5.88038 10.725C4.94844 10.706 4.16545 10.1003 3.89809 9.26747C4.22465 9.31479 4.51875 9.31479 4.85486 9.22962C4.375 9.13299 3.94368 8.87468 3.6342 8.49857C3.32471 8.12247 3.15614 7.65177 3.15712 7.16643V7.13993C3.43785 7.29704 3.76823 7.39357 4.11389 7.40682C3.82331 7.21488 3.58501 6.95483 3.42011 6.64974C3.25521 6.34466 3.16881 6.00395 3.16858 5.65785C3.16858 5.26603 3.2717 4.90828 3.45694 4.59786C3.98957 5.24774 4.65421 5.77925 5.40766 6.15787C6.16111 6.53648 6.98651 6.75371 7.83021 6.79544C7.53038 5.36635 8.60746 4.20983 9.90226 4.20983C10.5134 4.20983 11.0634 4.46347 11.451 4.87232C11.9304 4.78336 12.3887 4.60543 12.7974 4.36693C12.6389 4.85339 12.3066 5.26414 11.8654 5.52345C12.2932 5.47803 12.7057 5.36067 13.0877 5.19599C12.7993 5.6162 12.4384 5.98909 12.024 6.28626Z" fill="#AAAAAA"/>
</svg>
