<svg width="16" height="12" viewBox="0 0 16 12" fill="none" xmlns="http://www.w3.org/2000/svg">
<path d="M15.5683 1.84781C15.4813 1.50427 15.3108 1.19099 15.0738 0.939313C14.8368 0.687636 14.5416 0.50639 14.2178 0.413717C13.026 0.0737305 8.24826 0.0737305 8.24826 0.0737305C8.24826 0.0737305 3.47055 0.0737304 2.27868 0.411908C1.95474 0.504281 1.65942 0.685426 1.42238 0.93715C1.18534 1.18887 1.01492 1.50232 0.92823 1.846C0.609375 3.1119 0.609375 5.75222 0.609375 5.75222C0.609375 5.75222 0.609375 8.39254 0.92823 9.65664C1.10386 10.3547 1.62221 10.9045 2.27868 11.0907C3.47055 11.4307 8.24826 11.4307 8.24826 11.4307C8.24826 11.4307 13.026 11.4307 14.2178 11.0907C14.876 10.9045 15.3927 10.3547 15.5683 9.65664C15.8872 8.39254 15.8872 5.75222 15.8872 5.75222C15.8872 5.75222 15.8872 3.11191 15.5683 1.84781ZM6.73072 8.17553V3.32892L10.6866 5.73414L6.73072 8.17553Z" fill="#AAAAAA"/>
</svg>
