<svg width="171" height="155" viewBox="0 0 171 155" fill="none" xmlns="http://www.w3.org/2000/svg">
<g id="Group 34073" opacity="0.5">
<g id="Group 5">
<path id="Vector 1" d="M171 84.0586L-2 84.0586" stroke="#E3C08D"/>
<path id="Vector 2" d="M171 76.5083H-2" stroke="#E3C08D"/>
<path id="Vector 3" d="M171 68.9562H-2" stroke="#E3C08D"/>
<path id="Vector 4" d="M171 61.4059L-2 61.4059" stroke="#E3C08D"/>
<path id="Vector 5" d="M171 53.8556L-2 53.8556" stroke="#E3C08D"/>
<path id="Vector 6" d="M171 46.3053L-2 46.3053" stroke="#E3C08D"/>
<path id="Vector 7" d="M171 38.7532L-2 38.7532" stroke="#E3C08D"/>
<path id="Vector 8" d="M171 31.2029L-2 31.2029" stroke="#E3C08D"/>
<path id="Vector 9" d="M171 23.6526L-2 23.6526" stroke="#E3C08D"/>
<path id="Vector 10" d="M171 16.1006L-2 16.1006" stroke="#E3C08D"/>
<path id="Vector 11" d="M171 8.55028L-2 8.55028" stroke="#E3C08D"/>
<path id="Vector 12" d="M171 0.999985L-2 0.999985" stroke="#E3C08D"/>
</g>
<g id="Group 6">
<path id="Vector 2_2" d="M6.30469 154.533L6.30469 84.0589" stroke="#E3C08D"/>
<path id="Vector 3_2" d="M14.6094 154.533L14.6094 84.0589" stroke="#E3C08D"/>
<path id="Vector 4_2" d="M22.9141 154.533L22.9141 84.0589" stroke="#E3C08D"/>
<path id="Vector 5_2" d="M31.2148 154.533L31.2148 84.0589" stroke="#E3C08D"/>
<path id="Vector 6_2" d="M39.5195 154.533L39.5195 84.0589" stroke="#E3C08D"/>
<path id="Vector 7_2" d="M47.8242 154.533L47.8242 84.0589" stroke="#E3C08D"/>
<path id="Vector 8_2" d="M56.1289 154.533L56.1289 84.0589" stroke="#E3C08D"/>
<path id="Vector 9_2" d="M64.4336 154.533L64.4336 84.0589" stroke="#E3C08D"/>
<path id="Vector 10_2" d="M72.7344 154.533L72.7344 84.0589" stroke="#E3C08D"/>
<path id="Vector 11_2" d="M81.0391 154.533L81.0391 84.0589" stroke="#E3C08D"/>
<path id="Vector 12_2" d="M89.3438 154.533L89.3438 84.0589" stroke="#E3C08D"/>
</g>
</g>
</svg>
